<svg id="Logo" xmlns="http://www.w3.org/2000/svg" viewBox="0 0 175.92 42"><defs><style>.cls-1{fill-rule:evenodd;}</style></defs><title>Sennheiser_WebLogo</title><path id="Wortmarke" d="M122.07,14h2V24.5h-2.58l-3-4.83c-0.52-.83-1-1.74-1-1.74h0V24.5h-2V14h2.38l3.56,5.72a7.63,7.63,0,0,1,.61,1.18h0V14Zm23.79,4.3h-3.53V14h-2.57V24.49h2.57V20h3.53v4.48h2.59V14h-2.59v4.3ZM134.2,20.9h0a7.63,7.63,0,0,0-.61-1.18L130,14h-2.38V24.5h2V17.94h0s0.44,0.91,1,1.74l3,4.83h2.58V14h-2V20.9Zm-26-1h3.35V18.36h-3.35V15.62h4.48V14h-7.06V24.5h7.14V22.75h-4.56V19.94Zm-9.3-3.54a0.47,0.47,0,0,1,.39-0.77h3.84V14H98.53a2.24,2.24,0,0,0-2.3,2.09,2.48,2.48,0,0,0,1,2l3.42,3.58a0.58,0.58,0,0,1-.38,1H96V24.5h4.82A2.48,2.48,0,0,0,103.39,22a2.69,2.69,0,0,0-1.08-2.11Zm70.84,0a0.47,0.47,0,0,1,.39-0.77h3.84V14h-4.55a2.24,2.24,0,0,0-2.3,2.09,2.48,2.48,0,0,0,1,2l3.42,3.58a0.58,0.58,0,0,1-.38,1h-4.23V24.5h4.82A2.48,2.48,0,0,0,174.23,22a2.69,2.69,0,0,0-1.08-2.11ZM179,19.94h3.35V18.36H179V15.62h4.48V14h-7.06V24.5h7.14V22.75H179V19.94Zm15.9,4.56h-2.8l-2-4.31H189V24.5h-2.58V14h4.71a3,3,0,0,1,3.32,3,3,3,0,0,1-2,2.84Zm-2.71-7.38a1.48,1.48,0,0,0-1.64-1.49H189v3h1.57A1.49,1.49,0,0,0,192.21,17.12ZM161.93,24.5h2.58V14h-2.58V24.5Zm-7.37-4.56h3.35V18.36h-3.35V15.62H159V14H152V24.5h7.14V22.75h-4.56V19.94Z" transform="translate(-19 -14)"/><path id="Bildmarke" class="cls-1" d="M19,14V56H75V14H19Zm30.82,3.56h0c-3.33,1.28-6.46,4.34-9,10l-2.87,6.3C32.72,45.25,29.81,47.7,22,47.7V16.84h27.7A0.37,0.37,0,0,1,49.82,17.56ZM72,22.3V53.16H44.32a0.37,0.37,0,0,1-.13-0.72h0c3.33-1.28,6.46-4.34,9-10l2.87-6.3C61.28,24.75,64.19,22.3,72,22.3Z" transform="translate(-19 -14)"/></svg>